<?xml version="1.0" encoding="utf-8"?><svg xmlns="http://www.w3.org/2000/svg" xmlns:xlink="http://www.w3.org/1999/xlink"><symbol viewBox="0 0 299.997 299.997" id="email"><path d="M149.996 0C67.157 0 .001 67.158.001 149.997c0 82.837 67.156 150 149.995 150s150-67.163 150-150C299.996 67.158 232.835 0 149.996 0zm.003 52.686l88.763 55.35H61.236l88.763-55.35zm89.869 143.737h-.009c0 8.878-7.195 16.072-16.072 16.072H76.211c-8.878 0-16.072-7.195-16.072-16.072v-84.865c0-.939.096-1.852.252-2.749l84.808 52.883c.104.065.215.109.322.169.112.062.226.122.34.179a8.903 8.903 0 0 0 1.847.721c.065.018.13.026.195.041a9.148 9.148 0 0 0 2.093.265h.015c.7 0 1.401-.099 2.093-.265.065-.016.13-.023.195-.041a8.99 8.99 0 0 0 1.847-.721 9.19 9.19 0 0 0 .34-.179c.106-.06.218-.104.322-.169l84.808-52.883c.156.897.252 1.808.252 2.749v84.865z"/></symbol><symbol viewBox="0 0 55.867 55.867" id="empty-star"><path d="M11.287 54.548a.997.997 0 0 1-.985-1.169l3.091-18.018L.302 22.602a1.001 1.001 0 0 1 .555-1.705l18.09-2.629 8.091-16.393a.996.996 0 1 1 1.792 0l8.09 16.393 18.091 2.629a1.002 1.002 0 0 1 .555 1.705L42.475 35.363l3.09 18.017c.064.375-.09.754-.397.978a.993.993 0 0 1-1.054.076l-16.18-8.506-16.182 8.506a1.008 1.008 0 0 1-.465.114zM3.149 22.584l12.016 11.713a1 1 0 0 1 .287.885L12.615 51.72l14.854-7.808a.996.996 0 0 1 .931 0l14.852 7.808-2.836-16.538a1 1 0 0 1 .287-.885l12.016-11.713-16.605-2.413a1 1 0 0 1-.753-.547L27.934 4.578l-7.427 15.047a1 1 0 0 1-.753.547L3.149 22.584z" fill="#787878"/></symbol><symbol viewBox="0 0 49.652 49.652" id="facebook-logo-button"><path d="M24.826 0C11.137 0 0 11.137 0 24.826c0 13.688 11.137 24.826 24.826 24.826 13.688 0 24.826-11.138 24.826-24.826C49.652 11.137 38.516 0 24.826 0zM31 25.7h-4.039v14.396h-5.985V25.7h-2.845v-5.088h2.845v-3.291c0-2.357 1.12-6.04 6.04-6.04l4.435.017v4.939h-3.219c-.524 0-1.269.262-1.269 1.386v2.99h4.56L31 25.7z"/></symbol><symbol viewBox="0 0 55.867 55.867" id="golden-star"><path d="M55.818 21.578a1.002 1.002 0 0 0-.808-.681l-18.09-2.629-8.09-16.392a.998.998 0 0 0-1.792 0l-8.091 16.393-18.09 2.629a1.002 1.002 0 0 0-.555 1.705l13.091 12.76-3.091 18.018c-.064.375.09.754.397.978a.992.992 0 0 0 1.053.076l16.182-8.506 16.18 8.506a1 1 0 0 0 1.451-1.054l-3.09-18.017 13.091-12.761c.272-.267.37-.664.252-1.025z" fill="#f2d800"/></symbol><symbol viewBox="0 0 49.652 49.652" id="instagram-logo"><path d="M24.825 29.796a4.978 4.978 0 0 0 4.972-4.97 4.954 4.954 0 0 0-.94-2.897 4.964 4.964 0 0 0-4.029-2.073c-1.659 0-3.126.82-4.031 2.072a4.947 4.947 0 0 0-.94 2.897 4.973 4.973 0 0 0 4.968 4.971zm10.853-11.05V13.96l-.623.002-4.164.013.016 4.787z"/><path d="M24.826 0C11.137 0 0 11.137 0 24.826c0 13.688 11.137 24.826 24.826 24.826 13.688 0 24.826-11.138 24.826-24.826C49.652 11.137 38.516 0 24.826 0zm14.119 21.929v11.56a5.463 5.463 0 0 1-5.457 5.458H16.164a5.462 5.462 0 0 1-5.457-5.458V16.165a5.462 5.462 0 0 1 5.457-5.457h17.323a5.463 5.463 0 0 1 5.458 5.457v5.764z"/><path d="M32.549 24.826c0 4.257-3.464 7.723-7.723 7.723s-7.722-3.466-7.722-7.723a7.67 7.67 0 0 1 .568-2.897h-4.215v11.56a2.706 2.706 0 0 0 2.706 2.704h17.323a2.707 2.707 0 0 0 2.706-2.704v-11.56h-4.217c.367.894.574 1.873.574 2.897z"/></symbol><symbol viewBox="0 0 314.068 314.068" id="play-button"><path d="M293.002 78.53C249.646 3.435 153.618-22.296 78.529 21.068 3.434 64.418-22.298 160.442 21.066 235.534c43.35 75.095 139.375 100.83 214.465 57.47 75.096-43.365 100.84-139.384 57.471-214.474zm-73.168 187.271c-60.067 34.692-136.894 14.106-171.576-45.973C13.568 159.761 34.161 82.935 94.23 48.26c60.071-34.69 136.894-14.106 171.578 45.971 34.685 60.076 14.098 136.886-45.974 171.57zm-6.279-115.149l-82.214-47.949c-7.492-4.374-13.535-.877-13.493 7.789l.421 95.174c.038 8.664 6.155 12.191 13.669 7.851l81.585-47.103c7.506-4.332 7.522-11.388.032-15.762z" fill="#FFF"/></symbol><symbol viewBox="0 0 268.832 268.832" id="right-arrow"><path d="M265.171 125.577l-80-80c-4.881-4.881-12.797-4.881-17.678 0-4.882 4.882-4.882 12.796 0 17.678l58.661 58.661H12.5c-6.903 0-12.5 5.597-12.5 12.5 0 6.902 5.597 12.5 12.5 12.5h213.654l-58.659 58.661c-4.882 4.882-4.882 12.796 0 17.678 2.44 2.439 5.64 3.661 8.839 3.661s6.398-1.222 8.839-3.661l79.998-80c4.882-4.882 4.882-12.796 0-17.678z" fill="#FFF"/></symbol><symbol viewBox="0 0 100 100" preserveAspectRatio="xMidYMid" class="huil-ring-alt" id="ring-alt"><path fill="none" class="hbk" d="M0 0h100v100H0z"/><circle cx="50" cy="50" r="40" stroke="#e0e0e0" fill="none" stroke-width="10" stroke-linecap="round"/><circle cx="50" cy="50" r="40" stroke="#00b0ff" fill="none" stroke-width="6" stroke-linecap="round"><animate attributeName="stroke-dashoffset" dur="2s" repeatCount="indefinite" from="0" to="502"/><animate attributeName="stroke-dasharray" dur="2s" repeatCount="indefinite" values="150.6 100.4;1 250;150.6 100.4"/></circle></symbol></svg>